<svg width="196" height="50" viewBox="0 0 196 50" fill="none" xmlns="http://www.w3.org/2000/svg">
<path d="M30.4762 30.7143C30.4762 27.2603 29.2978 24.3752 26.941 22.059C24.6248 19.7022 21.7397 18.5238 18.2857 18.5238C14.8317 18.5238 11.9263 19.7022 9.56952 22.059C7.25333 24.3752 6.09524 27.2603 6.09524 30.7143C6.09524 34.1683 7.25333 37.0737 9.56952 39.4305C11.9263 41.7467 14.8317 42.9048 18.2857 42.9048C21.7397 42.9048 24.6248 41.7467 26.941 39.4305C29.2978 37.0737 30.4762 34.1683 30.4762 30.7143ZM30.4762 0.238094H36.5714V30.7143C36.5714 35.8343 34.8038 40.1619 31.2686 43.6971C27.7333 47.2324 23.4057 49 18.2857 49C13.1657 49 8.83809 47.2324 5.30286 43.6971C1.76762 40.1619 0 35.8343 0 30.7143C0 25.5943 1.76762 21.2667 5.30286 17.7314C8.83809 14.1962 13.1657 12.4286 18.2857 12.4286C22.9587 12.4286 27.0222 13.9727 30.4762 17.061V0.238094ZM76.1964 27.6667C76.4402 29.1702 76.4402 31.2019 76.1964 33.7619H45.7202C47.7113 39.5321 51.7748 42.5797 57.9107 42.9048C63.1526 43.1892 67.2161 41.1575 70.1012 36.8095H76.1964C74.6929 40.8324 72.3361 43.9003 69.126 46.0133C65.9564 48.1263 62.218 49.1219 57.9107 49C52.7907 48.8375 48.4631 47.0292 44.9279 43.5752C41.3926 40.0806 39.625 35.7937 39.625 30.7143C39.625 25.5943 41.3926 21.287 44.9279 17.7924C48.4631 14.2571 52.7907 12.4692 57.9107 12.4286C62.5837 12.3879 66.6066 13.7695 69.9793 16.5733C73.3926 19.3771 75.465 23.0749 76.1964 27.6667ZM45.7202 27.6667H70.1012C69.2885 24.8222 67.785 22.5873 65.5907 20.9619C63.4371 19.3365 60.8771 18.5238 57.9107 18.5238C54.9444 18.5238 52.364 19.3365 50.1698 20.9619C48.0161 22.5873 46.5329 24.8222 45.7202 27.6667ZM109.726 30.7143C109.726 27.2603 108.548 24.3752 106.191 22.059C103.875 19.7022 100.99 18.5238 97.5357 18.5238C94.0817 18.5238 91.1763 19.7022 88.8195 22.059C86.5033 24.3752 85.3452 27.2603 85.3452 30.7143C85.3452 34.1683 86.5033 37.0737 88.8195 39.4305C91.1763 41.7467 94.0817 42.9048 97.5357 42.9048C100.99 42.9048 103.875 41.7467 106.191 39.4305C108.548 37.0737 109.726 34.1683 109.726 30.7143ZM79.25 0.238094H85.3452V17.061C88.7992 13.9727 92.8627 12.4286 97.5357 12.4286C102.656 12.4286 106.983 14.1962 110.519 17.7314C114.054 21.2667 115.821 25.5943 115.821 30.7143C115.821 35.8343 114.054 40.1619 110.519 43.6971C106.983 47.2324 102.656 49 97.5357 49C92.4157 49 88.0881 47.2324 84.5529 43.6971C81.0176 40.1619 79.25 35.8343 79.25 30.7143V0.238094ZM155.446 27.6667C155.69 29.1702 155.69 31.2019 155.446 33.7619H124.97C126.961 39.5321 131.025 42.5797 137.161 42.9048C142.403 43.1892 146.466 41.1575 149.351 36.8095H155.446C153.943 40.8324 151.586 43.9003 148.376 46.0133C145.206 48.1263 141.468 49.1219 137.161 49C132.041 48.8375 127.713 47.0292 124.178 43.5752C120.643 40.0806 118.875 35.7937 118.875 30.7143C118.875 25.5943 120.643 21.287 124.178 17.7924C127.713 14.2571 132.041 12.4692 137.161 12.4286C141.834 12.3879 145.857 13.7695 149.229 16.5733C152.643 19.3771 154.715 23.0749 155.446 27.6667ZM124.97 27.6667H149.351C148.538 24.8222 147.035 22.5873 144.841 20.9619C142.687 19.3365 140.127 18.5238 137.161 18.5238C134.194 18.5238 131.614 19.3365 129.42 20.9619C127.266 22.5873 125.783 24.8222 124.97 27.6667ZM176.786 18.5238C173.332 18.5238 170.426 19.7022 168.07 22.059C165.753 24.3752 164.595 27.2603 164.595 30.7143V49H158.5V30.7143C158.5 25.5943 160.268 21.2667 163.803 17.7314C167.338 14.1962 171.666 12.4286 176.786 12.4286C181.906 12.4286 186.233 14.1962 189.769 17.7314C193.304 21.2667 195.071 25.5943 195.071 30.7143V49H188.976V30.7143C188.976 27.2603 187.798 24.3752 185.441 22.059C183.125 19.7022 180.24 18.5238 176.786 18.5238Z" fill="white"/>
</svg>
